<svg width="30" height="36" viewBox="0 0 30 36" fill="none" xmlns="http://www.w3.org/2000/svg">
<g filter="url(#filter0_d_13_1867)">
<path d="M15 0.120117C12.0837 0.123507 9.28779 1.26662 7.22564 3.2987C5.16348 5.33078 4.00345 8.0859 4.00001 10.9597C3.99652 13.3082 4.77499 15.5929 6.21601 17.4635C6.21601 17.4635 6.51601 17.8527 6.56501 17.9089L15 27.7118L23.439 17.9039C23.483 17.8517 23.784 17.4635 23.784 17.4635L23.785 17.4605C25.2253 15.5908 26.0034 13.3071 26 10.9597C25.9966 8.0859 24.8365 5.33078 22.7744 3.2987C20.7122 1.26662 17.9163 0.123507 15 0.120117V0.120117ZM15 14.9014C14.2089 14.9014 13.4355 14.6702 12.7777 14.2371C12.1199 13.804 11.6072 13.1884 11.3045 12.4681C11.0017 11.7479 10.9225 10.9553 11.0769 10.1907C11.2312 9.42611 11.6122 8.72377 12.1716 8.17252C12.731 7.62127 13.4437 7.24586 14.2197 7.09377C14.9956 6.94168 15.7998 7.01974 16.5307 7.31808C17.2616 7.61641 17.8864 8.12163 18.3259 8.76983C18.7654 9.41803 19 10.1801 19 10.9597C18.9987 12.0047 18.5768 13.0065 17.827 13.7454C17.0771 14.4844 16.0605 14.9001 15 14.9014V14.9014Z" fill="black"/>
</g>
<defs>
<filter id="filter0_d_13_1867" x="0" y="0.120117" width="30" height="35.5917" filterUnits="userSpaceOnUse" color-interpolation-filters="sRGB">
<feFlood flood-opacity="0" result="BackgroundImageFix"/>
<feColorMatrix in="SourceAlpha" type="matrix" values="0 0 0 0 0 0 0 0 0 0 0 0 0 0 0 0 0 0 127 0" result="hardAlpha"/>
<feOffset dy="4"/>
<feGaussianBlur stdDeviation="2"/>
<feComposite in2="hardAlpha" operator="out"/>
<feColorMatrix type="matrix" values="0 0 0 0 0 0 0 0 0 0 0 0 0 0 0 0 0 0 0.25 0"/>
<feBlend mode="normal" in2="BackgroundImageFix" result="effect1_dropShadow_13_1867"/>
<feBlend mode="normal" in="SourceGraphic" in2="effect1_dropShadow_13_1867" result="shape"/>
</filter>
</defs>
</svg>
