<svg width="16" height="16" viewBox="0 0 16 16" fill="none" xmlns="http://www.w3.org/2000/svg">
<path d="M10.6665 4.66667C10.6665 4.48986 10.7367 4.32029 10.8618 4.19526C10.9868 4.07024 11.1564 4 11.3332 4C11.51 4 11.6796 4.07024 11.8046 4.19526C11.9296 4.32029 11.9998 4.48986 11.9998 4.66667C11.9998 4.84348 11.9296 5.01305 11.8046 5.13807C11.6796 5.2631 11.51 5.33333 11.3332 5.33333C11.1564 5.33333 10.9868 5.2631 10.8618 5.13807C10.7367 5.01305 10.6665 4.84348 10.6665 4.66667Z" fill="#636270"/>
<path fill-rule="evenodd" clip-rule="evenodd" d="M7.99992 4.8335C7.16007 4.8335 6.35461 5.16713 5.76075 5.76099C5.16688 6.35486 4.83325 7.16031 4.83325 8.00016C4.83325 8.84001 5.16688 9.64547 5.76075 10.2393C6.35461 10.8332 7.16007 11.1668 7.99992 11.1668C8.83977 11.1668 9.64523 10.8332 10.2391 10.2393C10.833 9.64547 11.1666 8.84001 11.1666 8.00016C11.1666 7.16031 10.833 6.35486 10.2391 5.76099C9.64523 5.16713 8.83977 4.8335 7.99992 4.8335ZM5.83325 8.00016C5.83325 7.42553 6.06153 6.87443 6.46785 6.4681C6.87418 6.06177 7.42528 5.8335 7.99992 5.8335C8.57455 5.8335 9.12565 6.06177 9.53198 6.4681C9.93831 6.87443 10.1666 7.42553 10.1666 8.00016C10.1666 8.5748 9.93831 9.1259 9.53198 9.53223C9.12565 9.93856 8.57455 10.1668 7.99992 10.1668C7.42528 10.1668 6.87418 9.93856 6.46785 9.53223C6.06153 9.1259 5.83325 8.5748 5.83325 8.00016Z" fill="#636270"/>
<path fill-rule="evenodd" clip-rule="evenodd" d="M11.5053 1.88877C9.17554 1.6305 6.82438 1.6305 4.49462 1.88877C3.15329 2.03877 2.06996 3.09544 1.91262 4.44344C1.63622 6.80649 1.63622 9.19371 1.91262 11.5568C2.06996 12.9048 3.15262 13.9614 4.49462 14.1114C6.80529 14.3694 9.19462 14.3694 11.5053 14.1114C12.8466 13.9614 13.93 12.9048 14.0873 11.5568C14.3637 9.19372 14.3637 6.80649 14.0873 4.44344C13.93 3.09544 12.8473 2.03877 11.5053 1.88877ZM4.60529 2.8821C6.86149 2.63202 9.13842 2.63202 11.3946 2.8821C12.2813 2.9821 12.9913 3.68144 13.0946 4.5601C13.3619 6.84565 13.3619 9.15456 13.0946 11.4401C12.9913 12.3188 12.2813 13.0188 11.3946 13.1174C9.13842 13.3675 6.86149 13.3675 4.60529 13.1174C3.71862 13.0188 3.00862 12.3188 2.90529 11.4401C2.63799 9.15456 2.63799 6.84565 2.90529 4.5601C3.00862 3.68144 3.71862 2.98144 4.60529 2.88277V2.8821Z" fill="#636270"/>
</svg>
