<svg width="16" height="16" viewBox="0 0 16 16" fill="none" xmlns="http://www.w3.org/2000/svg">
<path d="M15.8407 4.79983C15.8407 4.79983 15.6843 3.69649 15.203 3.21249C14.5937 2.57483 13.9123 2.57183 13.6 2.53416C11.3627 2.37183 8.00333 2.37183 8.00333 2.37183H7.99667C7.99667 2.37183 4.63767 2.37183 2.4 2.53416C2.08733 2.57183 1.40633 2.57483 0.796667 3.21249C0.316 3.69649 0.162667 4.79983 0.162667 4.79983C0.162667 4.79983 0 6.09649 0 7.39049V8.60283C0 9.89683 0.159333 11.1935 0.159333 11.1935C0.159333 11.1935 0.315667 12.2968 0.793667 12.7812C1.403 13.4185 2.203 13.3968 2.55933 13.4655C3.84067 13.5875 8 13.6248 8 13.6248C8 13.6248 11.3623 13.6185 13.6 13.4592C13.9127 13.4218 14.5937 13.4185 15.2033 12.7812C15.6843 12.2968 15.8407 11.1935 15.8407 11.1935C15.8407 11.1935 16 9.90016 16 8.60316V7.39083C16 6.09716 15.8407 4.80016 15.8407 4.80016V4.79983ZM6.34667 10.0748V5.57816L10.6683 7.83416L6.34667 10.0748Z" fill="#636270"/>
</svg>
